<svg width="57" height="36" viewBox="0 0 57 36" fill="none" xmlns="http://www.w3.org/2000/svg">
<path d="M23.4505 16.104C24.6334 15.509 25.5277 14.8463 26.1405 14.1302C27.2307 12.8404 27.7687 11.1303 27.7687 9.0104C27.7687 6.94752 27.2307 5.18392 26.1547 3.70534C24.3591 1.29687 21.32 0.0641309 17.0232 0H0V34.7483H15.8724C17.6609 34.7483 19.3177 34.5951 20.8497 34.2815C22.3817 33.9645 23.7071 33.3837 24.8294 32.5358C25.827 31.7983 26.6607 30.8826 27.3233 29.8031C28.3708 28.1713 28.8945 26.3222 28.8945 24.2629C28.8945 22.2677 28.4349 20.5682 27.5229 19.1716C26.6001 17.775 25.2462 16.7524 23.4505 16.104ZM7.02234 6.03543H14.6895C16.3748 6.03543 17.7643 6.21714 18.8545 6.57698C20.1157 7.10072 20.7464 8.166 20.7464 9.79065C20.7464 11.2479 20.2654 12.2668 19.3141 12.8404C18.3557 13.4141 17.1123 13.7026 15.5874 13.7026H7.02234V6.03543ZM19.1466 28.1072C18.2987 28.5169 17.1051 28.72 15.5767 28.72H7.02234V19.453H15.6943C17.2049 19.4637 18.3806 19.6633 19.2215 20.0374C20.7179 20.7143 21.4625 21.9542 21.4625 23.7676C21.4625 25.9053 20.6929 27.3447 19.1466 28.1072Z" fill="white"/>
<path d="M51.5221 1.62109H36.4264V5.94637H51.5221V1.62109Z" fill="white"/>
<path d="M56.7665 18.6906C56.4529 16.6776 55.7617 14.9069 54.6858 13.3784C53.5065 11.6469 52.0101 10.3785 50.1895 9.57688C48.376 8.77168 46.3345 8.36908 44.0614 8.37264C40.2456 8.37264 37.146 9.56619 34.7482 11.9355C32.3575 14.3119 31.1604 17.7286 31.1604 22.1822C31.1604 26.9314 32.4822 30.3624 35.1401 32.4681C37.7873 34.5773 40.8442 35.6283 44.3144 35.6283C48.5149 35.6283 51.7821 34.3777 54.1157 31.8838C55.6085 30.309 56.4529 28.7592 56.6382 27.2378H49.6835C49.2809 27.9896 48.8142 28.5774 48.2798 29.005C47.3107 29.7888 46.0495 30.1807 44.5032 30.1807C43.0317 30.1807 41.7848 29.8565 40.7444 29.2116C39.0271 28.1784 38.1293 26.3685 38.0153 23.7926H56.9945C57.023 21.5729 56.9517 19.8663 56.7665 18.6906ZM38.1863 19.3568C38.4357 17.6859 39.0414 16.3605 40.0033 15.3807C40.9653 14.4045 42.3263 13.9128 44.0685 13.9093C45.6754 13.9093 47.0186 14.3689 48.1123 15.2917C49.1919 16.2216 49.8011 17.5719 49.9258 19.3568H38.1863Z" fill="white"/>
</svg>
