<svg width="42" height="40" viewBox="0 0 42 40" fill="none" xmlns="http://www.w3.org/2000/svg">
<path d="M21 0C9.3975 0 0 9.18247 0 20.5075C0 29.57 6.0165 37.2551 14.3587 39.9646C15.4087 40.1577 15.7937 39.5229 15.7937 38.9785C15.7937 38.4916 15.7763 37.2012 15.7675 35.4916C9.926 36.7281 8.694 32.7404 8.694 32.7404C7.7385 30.3735 6.35775 29.7404 6.35775 29.7404C4.4555 28.4691 6.50475 28.4952 6.50475 28.4952C8.6135 28.6378 9.72125 30.6082 9.72125 30.6082C11.5937 33.7438 14.637 32.8378 15.8375 32.3143C16.0265 30.9874 16.5673 30.0848 17.1675 29.5717C12.5038 29.0587 7.602 27.2952 7.602 19.438C7.602 17.1997 8.41575 15.3702 9.76325 13.9354C9.527 13.4172 8.81825 11.332 9.947 8.5077C9.947 8.5077 11.7058 7.95814 15.722 10.6103C17.402 10.1546 19.187 9.92855 20.972 9.91811C22.757 9.92855 24.542 10.1546 26.222 10.6103C30.212 7.95814 31.9707 8.5077 31.9707 8.5077C33.0995 11.332 32.3907 13.4172 32.1807 13.9354C33.5195 15.3702 34.3332 17.1997 34.3332 19.438C34.3332 27.3161 29.4245 29.05 24.752 29.5543C25.487 30.17 26.1695 31.4274 26.1695 33.3491C26.1695 36.0934 26.1433 38.2986 26.1433 38.9646C26.1433 39.502 26.5107 40.1437 27.587 39.9385C35.9888 37.2464 42 29.5561 42 20.5075C42 9.18247 32.5972 0 21 0V0Z" fill="white"/>
</svg>
