<svg width="40" height="40" viewBox="0 0 40 40" fill="none" xmlns="http://www.w3.org/2000/svg">
<path d="M39.99 40V39.9984H40V25.3284C40 18.1517 38.455 12.6234 30.065 12.6234C26.0316 12.6234 23.325 14.8367 22.22 16.935H22.1033V13.2934H14.1483V39.9984H22.4316V26.775C22.4316 23.2934 23.0916 19.9267 27.4033 19.9267C31.6516 19.9267 31.715 23.9 31.715 26.9984V40H39.99Z" fill="white"/>
<path d="M0.660034 13.295H8.95337V40H0.660034V13.295Z" fill="white"/>
<path d="M4.80333 0C2.15167 0 0 2.15167 0 4.80333C0 7.455 2.15167 9.65167 4.80333 9.65167C7.455 9.65167 9.60667 7.455 9.60667 4.80333C9.605 2.15167 7.45333 0 4.80333 0V0Z" fill="white"/>
</svg>
