<svg width="48" height="37" viewBox="0 0 48 37" fill="none" xmlns="http://www.w3.org/2000/svg">
<path d="M43.7812 0H4.21875C1.89544 0 0 1.89337 0 4.21875V32.3438C0 34.6613 1.887 36.5625 4.21875 36.5625H43.7812C46.0988 36.5625 48 34.6755 48 32.3438V4.21875C48 1.90125 46.113 0 43.7812 0ZM43.1987 2.8125L24.0894 21.9218L4.81491 2.8125H43.1987ZM2.8125 31.7614V4.78772L16.3574 18.2165L2.8125 31.7614ZM4.80122 33.75L18.3547 20.1966L23.1038 24.9049C23.6535 25.4499 24.5407 25.4482 25.0882 24.9006L29.7188 20.27L43.1988 33.75H4.80122ZM45.1875 31.7613L31.7075 18.2812L45.1875 4.80112V31.7613Z" fill="white"/>
</svg>
