<svg width="42" height="37" viewBox="0 0 42 37" fill="none" xmlns="http://www.w3.org/2000/svg">
<path d="M23.1064 9.695C23.7757 9.695 24.3183 9.15242 24.3183 8.48312C24.3183 7.81382 23.7757 7.27124 23.1064 7.27124C22.4371 7.27124 21.8945 7.81382 21.8945 8.48312C21.8945 9.15242 22.4371 9.695 23.1064 9.695Z" fill="white"/>
<path d="M27.9541 9.695C28.6234 9.695 29.1659 9.15242 29.1659 8.48312C29.1659 7.81382 28.6234 7.27124 27.9541 7.27124C27.2848 7.27124 26.7422 7.81382 26.7422 8.48312C26.7422 9.15242 27.2848 9.695 27.9541 9.695Z" fill="white"/>
<path d="M32.8017 9.695C33.471 9.695 34.0136 9.15242 34.0136 8.48312C34.0136 7.81382 33.471 7.27124 32.8017 7.27124C32.1324 7.27124 31.5898 7.81382 31.5898 8.48312C31.5898 9.15242 32.1324 9.695 32.8017 9.695Z" fill="white"/>
<path d="M27.2441 36.3565C29.2393 36.3565 30.8626 34.7255 30.8626 32.7208V27.8733C30.8626 27.352 30.5291 26.8891 30.0348 26.7239L22.7807 24.3001C22.4255 24.1815 22.0359 24.2336 21.7244 24.4412L18.6395 26.4978C15.3288 24.9268 11.4158 21.0485 9.85946 17.7966L11.9153 14.7129C12.1229 14.4015 12.175 14.0116 12.0564 13.6566L9.6326 6.4025C9.46738 5.90806 9.00452 5.57471 8.48317 5.57471H3.63564C1.63095 5.57471 0 7.1979 0 9.19314C0 15.8889 3.04457 22.761 8.35309 28.0473C13.6558 33.3279 20.5414 36.3565 27.2441 36.3565ZM3.63564 7.99847H7.61037L9.56958 13.862L7.47488 17.004C7.25351 17.3361 7.2098 17.7558 7.35806 18.1263C8.16396 20.141 9.77673 22.407 11.8992 24.5069C14.0077 26.5928 16.2848 28.188 18.311 28.9984C18.6814 29.1466 19.1013 29.1029 19.4332 28.8816L22.5753 26.7869L28.4388 28.7461V32.7208C28.4388 33.4004 27.9141 33.9327 27.2441 33.9327C14.486 33.9327 2.42376 21.9097 2.42376 9.19314C2.42376 8.52321 2.9561 7.99847 3.63564 7.99847Z" fill="white"/>
<path d="M22.6427 21.7216C23.0955 21.9092 23.6168 21.8055 23.9634 21.4589L28.4559 16.9663H32.8015C37.5236 16.9663 41.3655 13.1608 41.3655 8.48317C41.3655 3.80555 37.5236 0 32.8015 0H23.1065C18.4288 0 14.6233 3.80555 14.6233 8.48317C14.6233 12.7494 17.789 16.2902 21.8946 16.8801V20.602C21.8946 21.0921 22.1899 21.534 22.6427 21.7216ZM17.0471 8.48317C17.0471 5.14201 19.7653 2.42376 23.1065 2.42376H32.8015C36.1872 2.42376 38.9417 5.14201 38.9417 8.48317C38.9417 11.8243 36.1872 14.5426 32.8015 14.5426H27.954C27.6325 14.5426 27.3243 14.6702 27.0971 14.8975L24.3183 17.6763V15.7545C24.3183 15.0852 23.7757 14.5426 23.1065 14.5426C19.7653 14.5426 17.0471 11.8243 17.0471 8.48317Z" fill="white"/>
</svg>
